<?xml version="1.0" encoding="UTF-8"?>
<svg width="31px" height="50px" viewBox="0 0 31 50" version="1.1" xmlns="http://www.w3.org/2000/svg" xmlns:xlink="http://www.w3.org/1999/xlink">
    <!-- Generator: Sketch 42 (36781) - http://www.bohemiancoding.com/sketch -->
    <title>fluent_color</title>
    <desc>Created with Sketch.</desc>
    <defs>
        <linearGradient x1="49.9910858%" y1="-0.00793726505%" x2="49.9910858%" y2="100.031397%" id="linearGradient-1">
            <stop stop-color="#3EB5F1" offset="0%"></stop>
            <stop stop-color="#3EB5F1" offset="1.664169%"></stop>
            <stop stop-color="#3EB5F1" offset="50.03%"></stop>
            <stop stop-color="#4D59A1" offset="100%"></stop>
        </linearGradient>
    </defs>
    <g id="Page-1" stroke="none" stroke-width="1" fill="none" fill-rule="evenodd">
        <g id="Artboard" transform="translate(-390.000000, -2385.000000)" fill-rule="nonzero">
            <g id="fluent_color" transform="translate(390.000000, 2385.000000)">
                <g id="Слой_2" transform="translate(0.477555, 5.491882)" fill="url(#linearGradient-1)">
                    <path d="M29.660936,30.1002865 C29.6322827,29.8042025 29.6036294,29.5033429 29.5797517,29.2072588 C29.5797517,28.8729704 29.5702006,28.5386819 29.5510984,28.2091691 C29.3457498,26.6236867 28.8538682,25.0811843 28.1661891,23.6389685 C27.4689589,22.1728749 26.8911175,20.6542502 26.1891117,19.1929322 C25.921681,18.686724 25.6303725,18.1900669 25.3056351,17.7125119 C24.9235912,17.1537727 24.5033429,16.6189112 24.0926457,16.0792741 C23.2712512,15.0047755 22.425979,13.9398281 21.6045845,12.8653295 C20.8166189,11.8338109 20.0429799,10.7927412 19.321872,9.71346705 C18.4527221,8.40496657 17.6981853,7.0487106 17.0057307,5.63992359 C16.4278892,4.46991404 15.9455587,3.252149 15.6064947,1.99140401 C15.4297994,1.33715377 15.2340019,0.687679083 15.1528176,0.0143266476 C14.8042025,0.00955109838 14.4508118,0.0143266476 14.1021968,0.0334288443 C14.0162369,0.630372493 13.8586437,1.21776504 13.6819484,1.80515759 C13.5195798,2.3591213 13.2951289,2.89398281 13.0324737,3.40496657 C12.4450812,4.54154728 11.7287488,5.60649475 11.0410697,6.69054441 C9.89016237,8.65807068 8.834766,10.6829035 7.70773639,12.6647564 C6.48042025,14.8185291 5.03342884,16.8385864 3.72015282,18.9350525 C2.17287488,21.5377268 0.926456543,24.2884432 0.109837631,27.2063037 C0.076408787,27.3352436 0.0477554919,27.4689589 0.0191021968,27.5978988 C0.0382043935,27.6456543 0.0573065903,27.6981853 0.0716332378,27.7507163 C0.100286533,28.0468004 0.128939828,28.34766 0.152817574,28.643744 C0.148042025,29.5176695 0.0525310411,30.3868195 0.0811843362,31.260745 C0.23400191,32.2588348 0.553963706,33.2187202 0.835721108,34.1881566 C0.964660936,34.4937918 1.09837631,34.7994269 1.23686724,35.095511 C1.7574021,36.0553964 2.37344795,36.9484241 3.00382044,37.8414518 C3.67717287,38.7965616 4.36962751,39.7468959 5.18624642,40.5873926 C5.66380134,40.9885387 6.1747851,41.3323782 6.71919771,41.6332378 C7.60267431,42.034384 8.5243553,42.3447947 9.45081184,42.6361032 C10.3820439,42.9274117 11.3085005,43.2282713 12.2540592,43.4670487 C13.0420248,43.6198663 13.8395415,43.7297039 14.6418338,43.7726839 C15.391595,43.7488061 16.1365807,43.6771729 16.8767908,43.5577841 C17.7459408,43.3906399 18.6150907,43.2139446 19.4890162,43.0515759 C19.078319,43.1279847 18.6676218,43.2043935 18.2617001,43.2808023 C19.0353391,43.1375358 19.8137536,42.9799427 20.5730659,42.7459408 C21.4708691,41.2989494 23.156638,40.4297994 24.8567335,40.2531041 C25.0716332,40.095511 25.2913085,39.9379179 25.5062082,39.7803247 C25.5921681,39.1451767 25.8404967,38.5816619 26.2511939,38.0850048 C26.5090735,37.8319007 26.7621777,37.5787966 27.0200573,37.3256925 C27.139446,37.2301815 27.2588348,37.1442216 27.3877746,37.0582617 C27.52149,36.8385864 27.6599809,36.6141356 27.7936963,36.3944604 C27.9178606,36.1938873 28.0563515,36.0076409 28.2187202,35.8404967 C28.2808023,35.773639 28.34766,35.7115568 28.4097421,35.6446991 C28.7917861,34.3266476 29.2454632,33.0276982 29.5702006,31.6905444 C29.6322827,31.2368672 29.6895893,30.7879656 29.7516714,30.3342884 C29.7182426,30.2626552 29.6895893,30.1862464 29.660936,30.1002865 Z" id="Shape"></path>
                </g>
                <g id="Слой_1" fill="#000000">
                    <path d="M28.9541547,34.8042025 C28.9541547,35.3581662 28.9207259,35.9121299 28.8586437,36.4660936 C28.8490926,36.5329513 28.8443171,36.5950334 28.834766,36.6618911 C28.8538682,36.4947469 28.8252149,36.7144222 28.8252149,36.7335244 C28.8061127,36.8624642 28.7870105,36.991404 28.7631328,37.1203438 C28.7153773,37.3973257 28.6580707,37.6743075 28.5959885,37.9465138 C28.4765998,38.4670487 28.3190067,38.9780325 28.1423114,39.4842407 C28.0563515,39.7230181 27.965616,39.9617956 27.8653295,40.1957975 C27.9274117,40.0477555 27.8462273,40.2387775 27.8366762,40.2578797 C27.8127985,40.3151862 27.7841452,40.3724928 27.7602674,40.4297994 C27.6981853,40.5635148 27.6361032,40.6972302 27.5692455,40.8309456 C27.3400191,41.3037249 27.0773639,41.7574021 26.7956065,42.2015282 C26.6618911,42.4116523 26.5186246,42.6217765 26.3753582,42.8271251 C26.3037249,42.9274117 26.2273161,43.0276982 26.1556829,43.1279847 C26.1461318,43.1423114 26.017192,43.30468 26.1174785,43.1805158 C26.0649475,43.2473734 26.0124164,43.3094556 25.9598854,43.3763133 C25.3056351,44.1881566 24.5606495,44.9235912 23.7488061,45.5778415 C23.7010506,45.6160458 23.6485196,45.6542502 23.6007641,45.6924546 C23.7249284,45.5969436 23.5625597,45.7211079 23.548233,45.730659 C23.4479465,45.8070678 23.34766,45.8787011 23.2473734,45.9551098 C23.0276982,46.112703 22.7984718,46.2655205 22.5692455,46.408787 C22.1251194,46.6905444 21.6666667,46.9436485 21.1938873,47.1728749 C21.0792741,47.2301815 20.9646609,47.2827125 20.8500478,47.3352436 C20.7927412,47.3638968 20.7354346,47.3877746 20.678128,47.4116523 C20.6638013,47.4212034 20.4680038,47.5023878 20.6160458,47.4403056 C20.3629417,47.5453677 20.1050621,47.6456543 19.8424069,47.7363897 C19.3361987,47.9178606 18.8252149,48.061127 18.30468,48.1852913 C18.0515759,48.2425979 17.7984718,48.2951289 17.5405922,48.3381089 C17.4116523,48.3619866 17.2827125,48.3810888 17.1537727,48.400191 C17.1346705,48.4049666 16.9197708,48.4336199 17.0821394,48.4097421 C16.9961796,48.4192932 16.9102197,48.4288443 16.8194842,48.443171 C16.2655205,48.5052531 15.7115568,48.5291309 15.1575931,48.5291309 C14.6036294,48.5291309 14.0496657,48.4909265 13.5004776,48.4288443 C13.4813754,48.4288443 13.2664756,48.400191 13.4288443,48.4192932 C13.3619866,48.4097421 13.2999045,48.400191 13.2330468,48.3906399 C13.104107,48.3715377 12.9751671,48.34766 12.8462273,48.3285578 C12.5692455,48.2808023 12.2970392,48.2187202 12.0200573,48.156638 C11.4995224,48.0324737 10.9885387,47.8748806 10.487106,47.6934097 C10.3677173,47.6504298 10.2483286,47.6026743 10.1289398,47.5596944 C10.0716332,47.5358166 10.0095511,47.5119389 9.95224451,47.4880611 C9.93314231,47.4832856 9.74212034,47.3973257 9.89016237,47.4641834 C9.63705826,47.3543457 9.3887297,47.2397326 9.1451767,47.1203438 C8.67717287,46.8863419 8.21872015,46.6236867 7.77936963,46.3419293 C7.56924546,46.2082139 7.36389685,46.0649475 7.15854823,45.9169054 C7.0582617,45.8452722 6.95797517,45.7688634 6.85768863,45.6924546 C6.69054441,45.5682904 6.96752627,45.7784145 6.80515759,45.6494747 C6.7382999,45.5969436 6.67621777,45.5444126 6.60936008,45.4918816 C5.80229226,44.8328558 5.06685769,44.0878701 4.417383,43.2712512 C4.4078319,43.2569245 4.27889207,43.0945559 4.37440306,43.2187202 C4.33619866,43.1709647 4.29799427,43.1184336 4.25978988,43.0706781 C4.18338109,42.9703916 4.11174785,42.8701051 4.04011461,42.765043 C3.88252149,42.5453677 3.73447947,42.3161414 3.58643744,42.086915 C3.30945559,41.6427889 3.05635148,41.1795606 2.82712512,40.7115568 C2.76981853,40.5969436 2.71728749,40.4823305 2.66475645,40.3677173 C2.6408787,40.3104107 2.61222541,40.2531041 2.58834766,40.1957975 C2.50238777,40.0047755 2.6408787,40.3295129 2.55969436,40.1337154 C2.46418338,39.8997135 2.37344795,39.660936 2.28748806,39.4221585 C2.10601719,38.9159503 1.96275072,38.4049666 1.83858644,37.8844317 C1.78127985,37.6313276 1.72874881,37.3782235 1.68576886,37.1203438 C1.66189112,36.991404 1.64278892,36.8624642 1.62368672,36.7335244 C1.61891117,36.7144222 1.59025788,36.4995224 1.61413563,36.6618911 C1.60458453,36.5950334 1.59980898,36.5329513 1.59025788,36.4660936 C1.52817574,35.9169054 1.4947469,35.3581662 1.4947469,34.8042025 C1.4947469,33.8825215 0.0620821394,33.8825215 0.0620821394,34.8042025 C0.0716332378,39.2168099 2.0296084,43.4909265 5.39637058,46.3467049 C7.0678128,47.765043 9.02578797,48.8108883 11.1365807,49.4078319 C13.3381089,50.0286533 15.6638013,50.1098376 17.913085,49.7230181 C22.2063037,48.982808 26.0267431,46.2702961 28.2569245,42.5453677 C29.6513849,40.2196753 30.3724928,37.5119389 30.3820439,34.8042025 C30.3868195,33.8825215 28.9541547,33.8825215 28.9541547,34.8042025 L28.9541547,34.8042025 Z" id="Shape"></path>
                    <path d="M14.512894,2.84622732 L14.512894,5.24355301 L14.512894,11.4565425 L14.512894,20.0334288 L14.512894,29.512894 L14.512894,38.4383954 L14.512894,45.3533906 L14.512894,48.7965616 L14.512894,48.9446036 C14.512894,49.8662846 15.9455587,49.8662846 15.9455587,48.9446036 L15.9455587,46.5472779 L15.9455587,40.3342884 L15.9455587,31.7574021 L15.9455587,22.277937 L15.9455587,13.3524355 L15.9455587,6.43744031 L15.9455587,2.99426934 L15.9455587,2.84622732 C15.9455587,1.91977077 14.512894,1.91977077 14.512894,2.84622732 L14.512894,2.84622732 Z" id="Shape"></path>
                    <path d="M1.13180516,35.3677173 L4.76122254,35.3677173 L13.1088825,35.3677173 L22.3686724,35.3677173 L28.7344795,35.3677173 L29.6466094,35.3677173 C30.5682904,35.3677173 30.5682904,33.9350525 29.6466094,33.9350525 L26.017192,33.9350525 L17.669532,33.9350525 L8.40974212,33.9350525 L2.04393505,33.9350525 L1.13180516,33.9350525 C0.210124164,33.9350525 0.210124164,35.3677173 1.13180516,35.3677173 L1.13180516,35.3677173 Z" id="Shape"></path>
                    <path d="M3.89684814,25.7497612 C4.33142311,26.2416428 4.60840497,26.6045845 4.97612225,27.1489971 C5.32473734,27.669532 5.63992359,28.2187202 5.91690544,28.782235 C6.2034384,29.3600764 6.38490926,29.8042025 6.59503343,30.4441261 C6.80038204,31.0553964 6.95797517,31.6809933 7.0773639,32.3161414 C7.20152818,32.9560649 7.25405922,33.4718243 7.28748806,34.1642789 C7.32091691,34.8328558 7.29703916,35.5014327 7.23973257,36.165234 C7.13467049,37.3161414 6.81470869,38.6389685 6.36580707,39.8137536 C6.22731614,40.1719198 6.10792741,40.434575 5.91690544,40.82617 C5.73065903,41.2082139 5.52053486,41.5854823 5.29608405,41.9531996 C4.85195798,42.6886342 4.4364852,43.2473734 3.89207259,43.8586437 C3.63419293,44.1499522 3.60076409,44.5845272 3.89207259,44.8710602 C4.15472779,45.1337154 4.64660936,45.1623687 4.90448902,44.8710602 C6.62846227,42.9083095 7.85100287,40.5396371 8.39541547,37.9847182 C8.95893028,35.3438395 8.8061127,32.5549188 7.94651385,29.9904489 C7.29703916,28.0515759 6.25119389,26.2750716 4.89971347,24.7373448 C4.64183381,24.4460363 4.14995224,24.4746896 3.88729704,24.7373448 C3.60553964,25.0286533 3.63896848,25.4584527 3.89684814,25.7497612 L3.89684814,25.7497612 Z" id="Shape"></path>
                    <path d="M26.5759312,43.8395415 C26.1461318,43.3524355 25.8643744,42.9799427 25.4966571,42.4307545 C25.1432665,41.9054441 24.8328558,41.356256 24.5510984,40.7879656 C24.2645654,40.2101242 24.0878701,39.756447 23.8729704,39.1165234 C23.6676218,38.5004776 23.5148042,37.8701051 23.3954155,37.234957 C22.9369628,34.7612225 23.2139446,32.1251194 24.1595033,29.6991404 C24.6848138,28.3524355 25.6112703,26.8672397 26.5759312,25.7688634 C26.8338109,25.4775549 26.8672397,25.0477555 26.5759312,24.756447 C26.313276,24.4937918 25.8213945,24.4603629 25.5635148,24.756447 C23.834766,26.7287488 22.6122254,29.1165234 22.0725883,31.6905444 C21.5186246,34.3457498 21.6857689,37.1489971 22.5644699,39.7182426 C23.2139446,41.6141356 24.2406877,43.3524355 25.5635148,44.8567335 C25.8213945,45.1528176 26.313276,45.1193887 26.5759312,44.8567335 C26.8624642,44.565425 26.8338109,44.1356256 26.5759312,43.8395415 L26.5759312,43.8395415 Z" id="Shape"></path>
                    <path d="M14.4985673,0.53008596 C14.0305635,3.31423114 13.591213,6.11270296 12.765043,8.82043935 C12.3495702,10.1766953 11.8624642,11.4135626 11.2082139,12.6552053 C10.582617,13.8443171 9.84240688,14.9713467 9.06399236,16.0649475 C7.53104107,18.2282713 5.81661891,20.2578797 4.30276982,22.4355301 C2.70773639,24.7230181 1.38968481,27.1728749 0.740210124,29.8997135 C0.367717287,31.4613181 0.181470869,33.061127 0.0429799427,34.6561605 C0.00955109838,35.0477555 0.396370583,35.3724928 0.759312321,35.3724928 C1.1747851,35.3724928 1.44221585,35.0429799 1.4756447,34.6561605 C1.71919771,31.8720153 2.19197708,29.078319 3.47182426,26.556829 C4.67526266,24.1881566 6.29417383,22.0678128 7.90830946,19.9713467 C9.53199618,17.860554 11.1891117,15.7449857 12.4403056,13.3858644 C13.7870105,10.8500478 14.5510984,8.06590258 15.1098376,5.26265521 C15.3963706,3.82043935 15.6303725,2.3686724 15.8739255,0.916905444 C15.9407832,0.53008596 15.7784145,0.148042025 15.3724928,0.0334288443 C15.0334288,-0.0668576886 14.565425,0.143266476 14.4985673,0.53008596 L14.4985673,0.53008596 Z" id="Shape"></path>
                    <path d="M14.5606495,0.912129895 C15.0286533,3.69627507 15.4680038,6.4947469 16.2941738,9.20248329 C16.7191977,10.5873926 17.2540592,11.938873 17.913085,13.2282713 C18.5291309,14.4269341 19.269341,15.5587393 20.0429799,16.6571156 C21.5711557,18.8252149 23.2808023,20.8548233 24.8042025,23.0276982 C25.5635148,24.1117479 26.2750716,25.2340019 26.8863419,26.408787 C27.5262655,27.6408787 27.9847182,28.9063992 28.3142311,30.2769819 C28.6676218,31.7526266 28.8299904,33.1518625 28.9589303,34.6513849 C28.9923591,35.0382044 29.2597899,35.3677173 29.6752627,35.3677173 C30.0382044,35.3677173 30.4250239,35.0429799 30.391595,34.6513849 C30.2626552,33.1709647 30.0859599,31.6857689 29.7707736,30.2340019 C29.4603629,28.8061127 28.982808,27.425979 28.3381089,26.112703 C27.1728749,23.7249284 25.5635148,21.5902579 23.9541547,19.4937918 C22.3352436,17.3877746 20.6829035,15.2913085 19.3887297,12.9560649 C18.0372493,10.5205349 17.2874881,7.79369628 16.7335244,5.03820439 C16.4326648,3.5434575 16.1891117,2.03438395 15.9360076,0.525310411 C15.86915,0.138490926 15.4011461,-0.0716332378 15.052531,0.0238777459 C14.6561605,0.143266476 14.4985673,0.525310411 14.5606495,0.912129895 L14.5606495,0.912129895 Z" id="Shape"></path>
                </g>
            </g>
        </g>
    </g>
</svg>